<?xml version="1.0" encoding="utf-8"?>
<!-- Generator: Adobe Illustrator 23.0.1, SVG Export Plug-In . SVG Version: 6.00 Build 0)  -->
<svg version="1.1" id="Capa_1" xmlns="http://www.w3.org/2000/svg" xmlns:xlink="http://www.w3.org/1999/xlink" x="0px" y="0px"
	 viewBox="0 0 615.327 500" enable-background="new 0 0 615.327 500" xml:space="preserve">
<g>
	<path fill="#007934" d="M469.467,249.984c0,89.075-72.27,161.306-161.345,161.306c-89.099,0-161.301-72.231-161.301-161.306
		c0-89.07,72.202-161.283,161.301-161.283C397.197,88.701,469.467,160.914,469.467,249.984 M307.926,0
		C169.924,0.106,58.097,111.992,58.097,249.984C58.097,388.062,170.029,500,308.122,500c138.064,0,249.99-111.938,249.99-250.016
		C558.112,111.992,446.291,0.106,308.318,0H307.926z"/>
	<rect y="199.512" fill="#007934" width="615.327" height="101.129"/>
	<g>
		<path fill="#FFFFFF" d="M149.628,222.801h17.058c2.305,0,4.316,0.066,6.034,0.199c1.716,0.135,3.284,0.377,4.706,0.726
			c1.42,0.349,2.735,0.818,3.942,1.406c1.207,0.593,2.506,1.368,3.902,2.333c3.647,2.469,6.423,5.54,8.327,9.213
			c1.903,3.673,2.856,7.764,2.856,12.27c0,4.56-1.046,8.81-3.139,12.751c-2.092,3.944-5.016,7.15-8.769,9.616
			c-2.735,1.824-5.766,3.137-9.091,3.941c-3.327,0.804-7.241,1.207-11.747,1.207h-14.08v-53.662H149.628z M165.398,267.051
			c3.11,0,5.939-0.415,8.488-1.247c2.547-0.833,4.719-2.025,6.517-3.581c1.796-1.556,3.191-3.42,4.183-5.592s1.488-4.598,1.488-7.28
			c0-5.419-1.757-9.683-5.269-12.794c-3.513-3.108-8.355-4.667-14.522-4.667h-6.275v35.161H165.398z"/>
		<path fill="#FFFFFF" d="M204.755,276.463v-53.662h10.459v53.662H204.755z"/>
		<path fill="#FFFFFF" d="M247.258,235.592c-1.073-3.218-3.137-4.828-6.194-4.828c-1.609,0-2.924,0.418-3.942,1.247
			c-1.02,0.833-1.53,1.945-1.53,3.339c0,1.342,0.496,2.495,1.489,3.46c0.991,0.965,2.776,2.066,5.35,3.299l5.953,2.895
			c3.271,1.61,5.766,3.69,7.483,6.237c1.716,2.547,2.574,5.511,2.574,8.89c0,2.573-0.429,4.906-1.288,6.998
			c-0.858,2.094-2.064,3.904-3.62,5.433c-1.556,1.527-3.42,2.708-5.592,3.538c-2.172,0.833-4.573,1.247-7.201,1.247
			c-1.609,0-3.192-0.161-4.746-0.481c-1.557-0.323-3.031-0.858-4.425-1.61c-1.075-0.536-2.012-1.072-2.816-1.608
			c-0.805-0.536-1.557-1.155-2.253-1.852c-0.697-0.697-1.368-1.515-2.011-2.454c-0.644-0.936-1.342-2.051-2.093-3.339l9.333-5.309
			c0.912,2.201,2.225,3.918,3.942,5.151s3.594,1.85,5.632,1.85c1.932,0,3.552-0.657,4.867-1.971
			c1.314-1.314,1.972-2.938,1.972-4.869c0-1.875-0.563-3.46-1.69-4.748c-1.126-1.285-3.111-2.599-5.953-3.941
			c-1.234-0.591-2.388-1.152-3.46-1.688c-1.073-0.536-2.04-1.049-2.897-1.53c-2.735-1.556-4.854-3.486-6.355-5.793
			c-1.502-2.305-2.253-4.825-2.253-7.562c0-1.985,0.387-3.849,1.167-5.592c0.776-1.743,1.862-3.229,3.258-4.465
			c1.394-1.233,3.044-2.213,4.948-2.936c1.903-0.726,3.954-1.086,6.155-1.086c2.253,0,4.385,0.36,6.396,1.086
			c2.011,0.723,3.713,1.757,5.109,3.097c0.804,0.752,1.435,1.461,1.89,2.132s0.978,1.677,1.57,3.016L247.258,235.592z"/>
		<path fill="#FFFFFF" d="M277.494,276.463v-44.331h-15.528v-9.331H303.4v9.331h-15.528v44.331H277.494z"/>
		<path fill="#FFFFFF" d="M339.829,276.463l-15.207-21.402h-4.827v21.402h-10.298v-53.662h16.01c2.949,0,5.322,0.228,7.12,0.683
			c1.796,0.455,3.499,1.221,5.109,2.293c4.344,2.95,6.517,7.188,6.517,12.71c0,3.327-0.873,6.251-2.614,8.769
			c-1.744,2.524-4.144,4.344-7.201,5.471l17.297,23.735h-11.906V276.463z M324.784,245.972c3.057,0,5.443-0.645,7.16-1.933
			c1.716-1.285,2.574-3.108,2.574-5.471c0-2.092-0.778-3.728-2.332-4.906c-1.557-1.181-3.702-1.772-6.437-1.772h-5.953v14.082
			H324.784z"/>
		<path fill="#FFFFFF" d="M357.278,276.463v-53.662h10.459v53.662H357.278z"/>
		<path fill="#FFFFFF" d="M414.812,276.221c-3.219,0.913-6.545,1.368-9.976,1.368c-3.97,0-7.683-0.738-11.143-2.213
			s-6.465-3.471-9.011-5.995c-2.548-2.518-4.559-5.497-6.034-8.931c-1.476-3.431-2.212-7.104-2.212-11.022
			c0-3.86,0.736-7.482,2.212-10.861c1.475-3.379,3.5-6.3,6.074-8.769c2.574-2.466,5.605-4.411,9.092-5.831
			c3.486-1.423,7.24-2.135,11.263-2.135c3.003,0,5.966,0.377,8.89,1.126c2.923,0.752,6.021,1.959,9.292,3.621v10.942
			c-1.556-1.126-3.031-2.077-4.425-2.855c-1.394-0.778-2.748-1.409-4.062-1.89c-1.315-0.484-2.629-0.833-3.942-1.049
			c-1.315-0.213-2.695-0.32-4.144-0.32c-2.789,0-5.39,0.47-7.804,1.406c-2.413,0.939-4.504,2.227-6.275,3.863
			c-1.77,1.636-3.166,3.555-4.184,5.753c-1.018,2.198-1.528,4.586-1.528,7.159c0,2.524,0.483,4.897,1.448,7.121
			c0.967,2.227,2.293,4.172,3.983,5.834c1.69,1.662,3.673,2.964,5.955,3.901c2.279,0.939,4.706,1.409,7.28,1.409
			c3.219,0,6.329-0.484,9.333-1.449c3.003-0.965,5.793-2.359,8.367-4.183v10.218C420.846,274.049,418.03,275.311,414.812,276.221z"
			/>
		<path fill="#FFFFFF" d="M443.864,276.463v-44.331h-15.528v-9.331h41.434v9.331h-15.528v44.331H443.864z"/>
	</g>
</g>
</svg>
