<?xml version="1.0" encoding="utf-8"?>
<!-- Generator: Adobe Illustrator 23.0.1, SVG Export Plug-In . SVG Version: 6.00 Build 0)  -->
<!DOCTYPE svg PUBLIC "-//W3C//DTD SVG 1.1//EN" "http://www.w3.org/Graphics/SVG/1.1/DTD/svg11.dtd" [
	<!ENTITY ns_extend "http://ns.adobe.com/Extensibility/1.0/">
	<!ENTITY ns_ai "http://ns.adobe.com/AdobeIllustrator/10.0/">
	<!ENTITY ns_graphs "http://ns.adobe.com/Graphs/1.0/">
	<!ENTITY ns_vars "http://ns.adobe.com/Variables/1.0/">
	<!ENTITY ns_imrep "http://ns.adobe.com/ImageReplacement/1.0/">
	<!ENTITY ns_sfw "http://ns.adobe.com/SaveForWeb/1.0/">
	<!ENTITY ns_custom "http://ns.adobe.com/GenericCustomNamespace/1.0/">
	<!ENTITY ns_adobe_xpath "http://ns.adobe.com/XPath/1.0/">
]>
<svg version="1.1" id="Capa_1" xmlns:x="&ns_extend;" xmlns:i="&ns_ai;" xmlns:graph="&ns_graphs;"
	 xmlns="http://www.w3.org/2000/svg" xmlns:xlink="http://www.w3.org/1999/xlink" x="0px" y="0px" viewBox="0 0 615.327 500"
	 enable-background="new 0 0 615.327 500" xml:space="preserve">
<metadata>
	<sfw  xmlns="&ns_sfw;">
		<slices></slices>
		<sliceSourceBounds  bottomLeftOrigin="true" height="500" width="615.327" x="-0.013" y="0"></sliceSourceBounds>
	</sfw>
</metadata>
<g>
	<path d="M469.467,249.984c0,89.075-72.27,161.306-161.345,161.306c-89.099,0-161.301-72.231-161.301-161.306
		c0-89.07,72.202-161.283,161.301-161.283C397.197,88.701,469.467,160.914,469.467,249.984 M307.926,0
		C169.924,0.106,58.097,111.992,58.097,249.984C58.097,388.062,170.029,500,308.122,500c138.064,0,249.99-111.938,249.99-250.016
		C558.112,111.992,446.291,0.106,308.318,0H307.926z"/>
	<rect y="199.512" width="615.327" height="101.129"/>
	<g>
		<path fill="#FFFFFF" d="M143.161,276.463l-28.642-37.01v37.01h-10.138v-53.662h10.138l28.642,37.169v-37.169h10.299v53.662
			H143.161z"/>
		<path fill="#FFFFFF" d="M215.867,260.572c-1.476,3.299-3.473,6.197-5.994,8.692c-2.522,2.492-5.498,4.451-8.931,5.871
			c-3.433,1.42-7.08,2.132-10.942,2.132c-3.917,0-7.591-0.723-11.022-2.172c-3.434-1.446-6.424-3.42-8.971-5.912
			c-2.548-2.495-4.559-5.43-6.034-8.81c-1.476-3.379-2.213-7.001-2.213-10.864c0-3.86,0.725-7.482,2.172-10.861
			c1.448-3.379,3.446-6.326,5.994-8.85c2.547-2.521,5.524-4.506,8.931-5.952c3.405-1.449,7.067-2.172,10.982-2.172
			c3.915,0,7.59,0.738,11.022,2.213s6.423,3.486,8.971,6.033c2.547,2.55,4.558,5.54,6.034,8.971
			c1.475,3.434,2.213,7.107,2.213,11.022C218.079,253.722,217.342,257.274,215.867,260.572z M206.252,242.913
			c-0.912-2.198-2.172-4.102-3.781-5.71c-1.609-1.61-3.499-2.884-5.672-3.823c-2.172-0.939-4.519-1.409-7.039-1.409
			c-2.413,0-4.694,0.458-6.838,1.368c-2.146,0.913-4.01,2.161-5.592,3.742c-1.583,1.582-2.843,3.42-3.781,5.511
			c-0.939,2.092-1.409,4.344-1.409,6.759c0,2.411,0.47,4.693,1.409,6.836c0.938,2.146,2.213,4.01,3.821,5.592
			c1.609,1.584,3.499,2.832,5.671,3.742c2.172,0.913,4.519,1.368,7.041,1.368c2.359,0,4.598-0.455,6.717-1.368
			c2.119-0.91,3.983-2.132,5.592-3.662c1.609-1.527,2.884-3.31,3.821-5.35c0.939-2.037,1.409-4.209,1.409-6.517
			C207.62,247.473,207.164,245.114,206.252,242.913z"/>
		<path fill="#FFFFFF" d="M256.794,276.463l-15.207-21.402h-4.827v21.402h-10.298v-53.662h16.01c2.949,0,5.322,0.228,7.12,0.683
			c1.796,0.455,3.499,1.221,5.109,2.293c4.344,2.95,6.517,7.188,6.517,12.71c0,3.327-0.873,6.251-2.614,8.769
			c-1.744,2.524-4.144,4.344-7.201,5.471l17.297,23.735H256.794z M241.748,245.972c3.057,0,5.443-0.645,7.16-1.933
			c1.716-1.285,2.574-3.108,2.574-5.471c0-2.092-0.778-3.728-2.332-4.906c-1.557-1.181-3.702-1.772-6.437-1.772h-5.953v14.082
			H241.748z"/>
		<path fill="#FFFFFF" d="M283.995,276.463v-44.331h-15.528v-9.331h41.434v9.331h-15.528v44.331H283.995z"/>
		<path fill="#FFFFFF" d="M350.554,276.463v-23.655h-24.459v23.655h-10.378v-53.662h10.378v20.515h24.459v-20.515h10.459v53.662
			H350.554z"/>
		<path fill="#FFFFFF" d="M371.745,276.463v-53.662h33.309v9.17h-22.85v11.264h18.023v9.492h-18.023v14.162h24.86v9.573H371.745z"/>
		<path fill="#FFFFFF" d="M445.345,276.463l-15.207-21.402h-4.827v21.402h-10.298v-53.662h16.01c2.949,0,5.322,0.228,7.12,0.683
			c1.796,0.455,3.499,1.221,5.109,2.293c4.344,2.95,6.517,7.188,6.517,12.71c0,3.327-0.873,6.251-2.614,8.769
			c-1.744,2.524-4.144,4.344-7.201,5.471l17.297,23.735H445.345z M430.3,245.972c3.057,0,5.443-0.645,7.16-1.933
			c1.716-1.285,2.574-3.108,2.574-5.471c0-2.092-0.778-3.728-2.332-4.906c-1.557-1.181-3.702-1.772-6.437-1.772h-5.953v14.082H430.3
			z"/>
		<path fill="#FFFFFF" d="M501.5,276.463l-28.642-37.01v37.01h-10.138v-53.662h10.138L501.5,259.97v-37.169h10.299v53.662H501.5z"/>
	</g>
</g>
</svg>
