<?xml version="1.0" encoding="utf-8"?>
<!-- Generator: Adobe Illustrator 23.0.1, SVG Export Plug-In . SVG Version: 6.00 Build 0)  -->
<svg version="1.1" id="Capa_1" xmlns="http://www.w3.org/2000/svg" xmlns:xlink="http://www.w3.org/1999/xlink" x="0px" y="0px"
	 viewBox="0 0 615.327 500" enable-background="new 0 0 615.327 500" xml:space="preserve">
<g>
	<path fill="#EC9BAD" d="M469.467,249.984c0,89.075-72.27,161.306-161.345,161.306c-89.099,0-161.301-72.231-161.301-161.306
		c0-89.07,72.202-161.283,161.301-161.283C397.197,88.701,469.467,160.914,469.467,249.984 M307.926,0
		C169.924,0.106,58.097,111.992,58.097,249.984C58.097,388.062,170.029,500,308.122,500c138.064,0,249.99-111.938,249.99-250.016
		C558.112,111.992,446.291,0.106,308.318,0H307.926z"/>
	<rect y="199.512" fill="#EC9BAD" width="615.327" height="101.129"/>
	<g>
		<path fill="#000F9F" d="M48.465,268.505v-16.597H31.304v16.597h-7.281v-37.653h7.281v14.396h17.161v-14.396h7.339v37.653H48.465z"
			/>
		<path fill="#000F9F" d="M88.642,268.505l-2.879-7.79H70.69l-2.878,7.79h-8.016l14.45-37.653h7.735l14.62,37.653H88.642z
			 M78.143,240.788l-4.968,13.266h10.048L78.143,240.788z"/>
		<path fill="#000F9F" d="M131.139,268.505v-26.363l-11.686,14.566l-11.855-14.566v26.363h-7.225v-37.653h7.225l11.855,14.845
			l11.686-14.845h7.508v37.653H131.139z"/>
		<path fill="#000F9F" d="M176.7,268.505v-26.363l-11.686,14.566l-11.855-14.566v26.363h-7.225v-37.653h7.225l11.855,14.845
			l11.686-14.845h7.508v37.653H176.7z"/>
		<path fill="#000F9F" d="M191.693,268.505v-37.653h23.371v6.436h-16.032v7.902h12.646v6.661h-12.646v9.936h17.444v6.718
			L191.693,268.505L191.693,268.505z"/>
		<path fill="#000F9F" d="M243.454,268.505l-10.669-15.015h-3.386v15.015h-7.227v-37.653h11.234c2.07,0,3.735,0.161,4.997,0.478
			c1.26,0.323,2.454,0.858,3.584,1.61c3.048,2.071,4.573,5.044,4.573,8.919c0,2.333-0.612,4.385-1.835,6.154
			c-1.223,1.769-2.907,3.048-5.053,3.837l12.137,16.654L243.454,268.505L243.454,268.505z M232.897,247.109
			c2.146,0,3.82-0.449,5.024-1.354c1.204-0.902,1.808-2.181,1.808-3.837c0-1.469-0.547-2.616-1.638-3.446
			c-1.092-0.827-2.597-1.242-4.516-1.242h-4.177v9.878h3.499V247.109z"/>
		<path fill="#000F9F" d="M269.9,239.829c-0.753-2.259-2.201-3.388-4.346-3.388c-1.129,0-2.053,0.291-2.767,0.876
			c-0.714,0.582-1.072,1.363-1.072,2.342c0,0.939,0.347,1.749,1.044,2.426c0.696,0.68,1.947,1.449,3.754,2.316l4.177,2.031
			c2.295,1.129,4.045,2.59,5.25,4.376c1.204,1.786,1.806,3.866,1.806,6.237c0,1.806-0.302,3.443-0.903,4.912
			c-0.602,1.466-1.449,2.737-2.541,3.811c-1.092,1.072-2.398,1.898-3.924,2.483c-1.524,0.582-3.208,0.876-5.052,0.876
			c-1.129,0-2.24-0.115-3.33-0.34c-1.092-0.225-2.128-0.602-3.106-1.129c-0.753-0.375-1.412-0.752-1.975-1.129
			c-0.565-0.375-1.093-0.81-1.582-1.299c-0.49-0.487-0.959-1.06-1.412-1.72c-0.451-0.66-0.941-1.44-1.468-2.342l6.55-3.728
			c0.64,1.544,1.56,2.748,2.766,3.613c1.204,0.867,2.521,1.299,3.951,1.299c1.355,0,2.493-0.461,3.415-1.383s1.383-2.06,1.383-3.417
			c0-1.317-0.395-2.426-1.185-3.33c-0.789-0.902-2.182-1.824-4.177-2.766c-0.866-0.412-1.675-0.81-2.427-1.184
			c-0.753-0.377-1.43-0.735-2.032-1.075c-1.919-1.089-3.407-2.446-4.46-4.062c-1.054-1.619-1.58-3.388-1.58-5.307
			c0-1.394,0.272-2.702,0.818-3.924c0.546-1.224,1.308-2.267,2.286-3.134c0.978-0.864,2.136-1.553,3.473-2.06
			c1.335-0.507,2.774-0.763,4.318-0.763c1.58,0,3.077,0.256,4.487,0.763c1.412,0.507,2.606,1.233,3.585,2.172
			c0.565,0.527,1.007,1.026,1.327,1.498c0.32,0.47,0.686,1.175,1.1,2.115L269.9,239.829z"/>
		<path fill="#000F9F" d="M314.045,268.505v-26.363l-11.686,14.566l-11.855-14.566v26.363h-7.225v-37.653h7.225l11.855,14.845
			l11.686-14.845h7.508v37.653H314.045z"/>
		<path fill="#000F9F" d="M329.09,268.505v-37.653h7.338v37.653H329.09z"/>
		<path fill="#000F9F" d="M351.901,268.505V237.4h-10.895v-6.548h29.074v6.548h-10.895v31.105H351.901z"/>
		<path fill="#000F9F" d="M398.738,268.505v-16.597h-17.161v16.597h-7.281v-37.653h7.281v14.396h17.161v-14.396h7.339v37.653
			H398.738z"/>
		<path fill="#000F9F" d="M452.367,268.505l-3.444-3.953c-0.301,0.228-0.546,0.435-0.733,0.622
			c-0.189,0.187-0.359,0.337-0.508,0.452c-1.318,1.092-2.786,1.947-4.403,2.567c-1.618,0.622-3.255,0.933-4.91,0.933
			c-1.582,0-3.068-0.302-4.46-0.905c-1.393-0.602-2.617-1.429-3.67-2.483c-1.054-1.054-1.883-2.287-2.483-3.699
			c-0.602-1.412-0.903-2.907-0.903-4.488c0-2.031,0.544-3.855,1.636-5.474c1.092-1.619,2.823-3.18,5.194-4.687
			c-0.226-0.262-0.434-0.478-0.621-0.648c-0.189-0.17-0.339-0.311-0.452-0.423c-0.828-0.939-1.487-2.022-1.975-3.247
			c-0.49-1.221-0.735-2.4-0.735-3.526c0-1.319,0.272-2.55,0.818-3.699c0.546-1.147,1.289-2.146,2.23-2.99
			c0.941-0.847,2.061-1.507,3.359-1.976c1.299-0.472,2.682-0.706,4.15-0.706c1.504,0,2.907,0.254,4.205,0.761
			c1.299,0.51,2.429,1.207,3.388,2.089c0.959,0.884,1.711,1.93,2.259,3.134c0.544,1.204,0.818,2.503,0.818,3.895
			c0,1.054-0.085,1.968-0.255,2.737c-0.169,0.772-0.48,1.469-0.931,2.089c-0.452,0.622-1.073,1.216-1.864,1.78
			c-0.789,0.565-1.788,1.167-2.992,1.806c-0.189,0.075-0.395,0.167-0.621,0.282c-0.225,0.112-0.49,0.262-0.789,0.449l5.249,6.041
			c0.15-0.262,0.291-0.49,0.423-0.677c0.133-0.187,0.235-0.34,0.311-0.452c0.376-0.565,0.677-1.043,0.903-1.438
			c0.226-0.398,0.432-0.726,0.621-0.988c0.376-0.64,0.64-1.129,0.791-1.469c0.15-0.337,0.282-0.81,0.395-1.412h7.225l-0.395,0.905
			c-0.189,0.415-0.5,1.034-0.932,1.861c-0.432,0.83-1.007,1.864-1.721,3.106c-0.339,0.602-0.64,1.121-0.903,1.553
			c-0.264,0.432-0.527,0.83-0.791,1.187c-0.264,0.357-0.546,0.714-0.846,1.072c-0.302,0.357-0.641,0.761-1.017,1.213l7.734,8.807
			h-8.355V268.505z M437.859,252.133c-1.318,0.527-2.342,1.282-3.077,2.259c-0.733,0.979-1.1,2.034-1.1,3.16
			c0,1.319,0.508,2.429,1.524,3.333c1.016,0.902,2.259,1.354,3.726,1.354c0.978,0,1.89-0.179,2.737-0.536
			c0.847-0.357,1.854-0.988,3.021-1.893L437.859,252.133z M444.972,239.771c0-1.092-0.423-2.014-1.27-2.766
			s-1.873-1.129-3.077-1.129s-2.211,0.366-3.019,1.1c-0.811,0.735-1.214,1.648-1.214,2.737c0,0.527,0.131,1.037,0.395,1.524
			c0.264,0.49,0.714,1.092,1.355,1.806l1.75,1.864C443.278,243.891,444.972,242.18,444.972,239.771z"/>
		<path fill="#000F9F" d="M505.261,268.335c-2.257,0.64-4.591,0.959-6.999,0.959c-2.786,0-5.392-0.516-7.819-1.553
			c-2.427-1.034-4.536-2.434-6.322-4.203c-1.789-1.769-3.199-3.857-4.235-6.266c-1.036-2.408-1.553-4.987-1.553-7.735
			c0-2.711,0.517-5.249,1.553-7.62s2.456-4.422,4.262-6.154s3.932-3.097,6.38-4.094c2.446-0.997,5.08-1.495,7.902-1.495
			c2.107,0,4.187,0.262,6.239,0.789c2.051,0.527,4.225,1.374,6.519,2.541v7.678c-1.092-0.789-2.126-1.458-3.104-2.005
			c-0.979-0.544-1.929-0.988-2.851-1.325c-0.923-0.34-1.845-0.585-2.766-0.735c-0.923-0.15-1.891-0.225-2.908-0.225
			c-1.958,0-3.783,0.328-5.475,0.988c-1.694,0.657-3.162,1.561-4.403,2.708c-1.242,1.149-2.221,2.495-2.936,4.036
			c-0.716,1.544-1.073,3.218-1.073,5.024c0,1.769,0.339,3.434,1.017,4.995c0.677,1.564,1.609,2.927,2.794,4.094
			c1.185,1.167,2.577,2.08,4.177,2.737c1.599,0.66,3.301,0.988,5.109,0.988c2.257,0,4.439-0.337,6.548-1.014
			c2.107-0.68,4.063-1.656,5.87-2.936v7.168C509.496,266.811,507.52,267.695,505.261,268.335z"/>
		<path fill="#000F9F" d="M517.963,268.505v-37.653h7.338v37.653H517.963z"/>
		<path fill="#000F9F" d="M540.774,268.505V237.4h-10.895v-6.548h29.074v6.548h-10.895v31.105H540.774z"/>
		<path fill="#000F9F" d="M575.063,268.505v-15.862l-13.04-21.791h8.468l8.072,14.283l8.128-14.283h8.468l-12.87,21.791v15.862
			H575.063z"/>
	</g>
</g>
</svg>
