<?xml version="1.0" encoding="utf-8"?>
<!-- Generator: Adobe Illustrator 23.0.1, SVG Export Plug-In . SVG Version: 6.00 Build 0)  -->
<svg version="1.1" id="Capa_1" xmlns="http://www.w3.org/2000/svg" xmlns:xlink="http://www.w3.org/1999/xlink" x="0px" y="0px"
	 viewBox="0 0 615.327 500" enable-background="new 0 0 615.327 500" xml:space="preserve">
<g>
	<path fill="#A65A2A" d="M469.466,249.984c0,89.075-72.27,161.306-161.345,161.306c-89.099,0-161.301-72.231-161.301-161.306
		c0-89.07,72.202-161.283,161.301-161.283C397.197,88.701,469.466,160.914,469.466,249.984 M307.926,0
		C169.923,0.106,58.097,111.992,58.097,249.984C58.097,388.062,170.029,500,308.122,500c138.064,0,249.99-111.938,249.99-250.016
		C558.111,111.992,446.291,0.106,308.317,0H307.926z"/>
	<rect y="199.512" fill="#A65A2A" width="615.327" height="101.129"/>
	<g>
		<path fill="#FFFFFF" d="M129.314,222.801c2.574,0,4.893,0.308,6.959,0.925c2.064,0.617,3.821,1.515,5.271,2.694
			c1.448,1.181,2.56,2.59,3.339,4.223c0.776,1.639,1.165,3.474,1.165,5.511c0,2.201-0.536,4.212-1.609,6.035
			c-0.376,0.642-0.738,1.196-1.086,1.651c-0.349,0.455-0.738,0.859-1.167,1.204c-0.429,0.351-0.925,0.66-1.488,0.928
			c-0.563,0.268-1.247,0.562-2.051,0.884c3.592,0.591,6.423,2.146,8.487,4.667c2.064,2.521,3.098,5.658,3.098,9.412
			c0,3.489-1.1,6.626-3.299,9.415c-1.717,2.198-3.796,3.768-6.236,4.704c-2.442,0.939-5.592,1.409-9.454,1.409h-17.539v-53.662
			L129.314,222.801L129.314,222.801z M128.75,243.639c2.198,0,3.914-0.524,5.148-1.57s1.851-2.48,1.851-4.304
			s-0.604-3.27-1.811-4.344c-1.206-1.072-2.829-1.61-4.867-1.61h-5.069v11.829L128.75,243.639L128.75,243.639z M130.923,267.613
			c2.735,0,4.853-0.631,6.355-1.89c1.501-1.262,2.253-3.019,2.253-5.272c0-1.821-0.591-3.486-1.77-4.987
			c-0.858-1.072-1.757-1.783-2.695-2.132c-0.939-0.349-2.321-0.524-4.143-0.524h-6.92v14.805L130.923,267.613L130.923,267.613z"/>
		<path fill="#FFFFFF" d="M194.192,276.463l-4.104-11.103h-21.481l-4.104,11.103h-11.424l20.597-53.662h11.022l20.837,53.662
			H194.192z M179.227,236.961l-7.081,18.907h14.322L179.227,236.961z"/>
		<path fill="#FFFFFF" d="M242.092,276.463l-20.837-23.493v23.493h-10.298v-53.662h10.298v19.953l19.551-19.953h13.275
			l-25.022,24.94l26.227,28.722H242.092z"/>
		<path fill="#FFFFFF" d="M260.396,276.463v-53.662h33.309v9.17h-22.85v11.264h18.023v9.492h-18.023v14.162h24.86v9.573h-35.319
			V276.463z"/>
		<path fill="#FFFFFF" d="M333.996,276.463l-15.207-21.402h-4.827v21.402h-10.298v-53.662h16.01c2.949,0,5.322,0.228,7.12,0.683
			c1.796,0.455,3.499,1.221,5.109,2.293c4.344,2.95,6.517,7.188,6.517,12.71c0,3.327-0.873,6.251-2.614,8.769
			c-1.744,2.524-4.144,4.344-7.201,5.471l17.297,23.735h-11.906V276.463z M318.951,245.972c3.057,0,5.443-0.645,7.16-1.933
			c1.716-1.285,2.574-3.108,2.574-5.471c0-2.092-0.778-3.728-2.332-4.906c-1.557-1.181-3.702-1.772-6.437-1.772h-5.953v14.082
			H318.951z"/>
		<path fill="#FFFFFF" d="M351.486,276.463v-53.662h10.298v43.847h22.367v9.815H351.486z"/>
		<path fill="#FFFFFF" d="M440.934,260.572c-1.476,3.299-3.473,6.197-5.994,8.692c-2.522,2.492-5.498,4.451-8.931,5.871
			s-7.08,2.132-10.942,2.132c-3.917,0-7.591-0.723-11.022-2.172c-3.434-1.446-6.424-3.42-8.971-5.912
			c-2.548-2.495-4.559-5.43-6.034-8.81c-1.476-3.379-2.213-7.001-2.213-10.864c0-3.86,0.725-7.482,2.172-10.861
			s3.446-6.326,5.994-8.85c2.547-2.521,5.524-4.506,8.931-5.952c3.405-1.449,7.067-2.172,10.982-2.172s7.59,0.738,11.022,2.213
			s6.423,3.486,8.971,6.033c2.547,2.55,4.558,5.54,6.034,8.971c1.475,3.434,2.212,7.107,2.212,11.022
			C443.146,253.722,442.409,257.274,440.934,260.572z M431.319,242.913c-0.912-2.198-2.172-4.102-3.781-5.71
			c-1.609-1.61-3.499-2.884-5.672-3.823c-2.172-0.939-4.519-1.409-7.039-1.409c-2.413,0-4.694,0.458-6.838,1.368
			c-2.146,0.913-4.01,2.161-5.592,3.742c-1.583,1.582-2.843,3.42-3.781,5.511c-0.939,2.092-1.409,4.344-1.409,6.759
			c0,2.411,0.47,4.693,1.409,6.836c0.938,2.146,2.212,4.01,3.821,5.592c1.609,1.584,3.499,2.832,5.671,3.742
			c2.172,0.913,4.519,1.368,7.041,1.368c2.359,0,4.598-0.455,6.717-1.368c2.119-0.91,3.983-2.132,5.592-3.662
			c1.609-1.527,2.884-3.31,3.821-5.35c0.939-2.037,1.409-4.209,1.409-6.517C432.687,247.473,432.231,245.114,431.319,242.913z"/>
		<path fill="#FFFFFF" d="M502.674,260.572c-1.476,3.299-3.473,6.197-5.994,8.692c-2.522,2.492-5.498,4.451-8.931,5.871
			s-7.08,2.132-10.942,2.132c-3.917,0-7.591-0.723-11.022-2.172c-3.434-1.446-6.424-3.42-8.971-5.912
			c-2.548-2.495-4.559-5.43-6.034-8.81c-1.476-3.379-2.213-7.001-2.213-10.864c0-3.86,0.725-7.482,2.172-10.861
			s3.446-6.326,5.994-8.85c2.547-2.521,5.524-4.506,8.931-5.952c3.405-1.449,7.067-2.172,10.982-2.172s7.59,0.738,11.022,2.213
			c3.433,1.475,6.423,3.486,8.971,6.033c2.547,2.55,4.558,5.54,6.034,8.971c1.475,3.434,2.212,7.107,2.212,11.022
			C504.886,253.722,504.149,257.274,502.674,260.572z M493.059,242.913c-0.912-2.198-2.172-4.102-3.781-5.71
			c-1.609-1.61-3.499-2.884-5.672-3.823c-2.172-0.939-4.519-1.409-7.039-1.409c-2.413,0-4.694,0.458-6.838,1.368
			c-2.146,0.913-4.01,2.161-5.592,3.742c-1.583,1.582-2.843,3.42-3.781,5.511c-0.939,2.092-1.409,4.344-1.409,6.759
			c0,2.411,0.47,4.693,1.409,6.836c0.938,2.146,2.212,4.01,3.821,5.592c1.609,1.584,3.499,2.832,5.671,3.742
			c2.172,0.913,4.519,1.368,7.041,1.368c2.359,0,4.598-0.455,6.717-1.368c2.119-0.91,3.983-2.132,5.592-3.662
			c1.609-1.527,2.884-3.31,3.821-5.35c0.939-2.037,1.409-4.209,1.409-6.517C494.427,247.473,493.971,245.114,493.059,242.913z"/>
	</g>
</g>
</svg>
