<?xml version="1.0" encoding="utf-8"?>
<!-- Generator: Adobe Illustrator 23.0.1, SVG Export Plug-In . SVG Version: 6.00 Build 0)  -->
<svg version="1.1" id="Capa_1" xmlns="http://www.w3.org/2000/svg" xmlns:xlink="http://www.w3.org/1999/xlink" x="0px" y="0px"
	 viewBox="0 0 615.327 500" enable-background="new 0 0 615.327 500" xml:space="preserve">
<g>
	<path fill="#FFCD00" d="M469.467,249.984c0,89.075-72.27,161.306-161.345,161.306c-89.099,0-161.301-72.231-161.301-161.306
		c0-89.07,72.202-161.283,161.301-161.283C397.197,88.701,469.467,160.914,469.467,249.984 M307.926,0
		C169.924,0.106,58.097,111.992,58.097,249.984C58.097,388.062,170.029,500,308.122,500c138.064,0,249.99-111.938,249.99-250.016
		C558.112,111.992,446.291,0.106,308.318,0H307.926z"/>
	<rect y="199.512" fill="#FFCD00" width="615.327" height="101.129"/>
	<g>
		<path fill="#000F9F" d="M221.169,276.221c-3.219,0.913-6.545,1.368-9.976,1.368c-3.97,0-7.683-0.738-11.143-2.213
			s-6.465-3.471-9.011-5.995c-2.548-2.518-4.559-5.497-6.034-8.931c-1.476-3.431-2.213-7.104-2.213-11.022
			c0-3.86,0.736-7.482,2.213-10.861c1.475-3.379,3.5-6.3,6.074-8.769c2.574-2.466,5.605-4.411,9.092-5.831
			c3.486-1.423,7.24-2.135,11.263-2.135c3.003,0,5.966,0.377,8.89,1.126c2.923,0.752,6.021,1.959,9.292,3.621v10.942
			c-1.556-1.126-3.031-2.077-4.425-2.855s-2.748-1.409-4.062-1.89c-1.315-0.484-2.629-0.833-3.942-1.049
			c-1.315-0.213-2.695-0.32-4.144-0.32c-2.789,0-5.39,0.47-7.804,1.406c-2.413,0.939-4.504,2.227-6.275,3.863
			c-1.77,1.636-3.166,3.555-4.184,5.753c-1.018,2.198-1.528,4.586-1.528,7.159c0,2.524,0.483,4.897,1.448,7.121
			c0.967,2.227,2.293,4.172,3.983,5.834c1.69,1.662,3.673,2.964,5.955,3.901c2.279,0.939,4.706,1.409,7.28,1.409
			c3.219,0,6.329-0.484,9.333-1.449c3.003-0.965,5.793-2.359,8.367-4.183v10.218C227.203,274.049,224.387,275.311,221.169,276.221z"
			/>
		<path fill="#000F9F" d="M239.109,276.463v-53.662h10.459v53.662H239.109z"/>
		<path fill="#000F9F" d="M291.301,276.463l-15.207-21.402h-4.827v21.402h-10.298v-53.662h16.01c2.949,0,5.322,0.228,7.12,0.683
			c1.796,0.455,3.499,1.221,5.109,2.293c4.344,2.95,6.517,7.188,6.517,12.71c0,3.327-0.873,6.251-2.614,8.769
			c-1.744,2.524-4.144,4.344-7.201,5.471l17.297,23.735h-11.906V276.463z M276.255,245.972c3.057,0,5.443-0.645,7.16-1.933
			c1.716-1.285,2.574-3.108,2.574-5.471c0-2.092-0.778-3.728-2.332-4.906c-1.557-1.181-3.702-1.772-6.437-1.772h-5.953v14.082
			H276.255z"/>
		<path fill="#000F9F" d="M342.606,276.221c-3.219,0.913-6.545,1.368-9.976,1.368c-3.97,0-7.683-0.738-11.143-2.213
			s-6.465-3.471-9.011-5.995c-2.548-2.518-4.559-5.497-6.034-8.931c-1.476-3.431-2.212-7.104-2.212-11.022
			c0-3.86,0.736-7.482,2.212-10.861c1.475-3.379,3.5-6.3,6.074-8.769c2.574-2.466,5.605-4.411,9.092-5.831
			c3.486-1.423,7.24-2.135,11.263-2.135c3.003,0,5.966,0.377,8.89,1.126c2.923,0.752,6.021,1.959,9.292,3.621v10.942
			c-1.556-1.126-3.031-2.077-4.425-2.855c-1.394-0.778-2.748-1.409-4.062-1.89c-1.315-0.484-2.629-0.833-3.942-1.049
			c-1.315-0.213-2.695-0.32-4.144-0.32c-2.789,0-5.39,0.47-7.804,1.406c-2.413,0.939-4.504,2.227-6.275,3.863
			c-1.77,1.636-3.166,3.555-4.184,5.753c-1.018,2.198-1.528,4.586-1.528,7.159c0,2.524,0.483,4.897,1.448,7.121
			c0.967,2.227,2.293,4.172,3.983,5.834c1.69,1.662,3.673,2.964,5.955,3.901c2.279,0.939,4.706,1.409,7.28,1.409
			c3.219,0,6.329-0.484,9.333-1.449c3.003-0.965,5.793-2.359,8.367-4.183v10.218C348.64,274.049,345.824,275.311,342.606,276.221z"
			/>
		<path fill="#000F9F" d="M360.433,276.463v-53.662h10.298v43.847h22.367v9.815H360.433z"/>
		<path fill="#000F9F" d="M399.195,276.463v-53.662h33.309v9.17h-22.85v11.264h18.023v9.492h-18.023v14.162h24.86v9.573h-35.319
			V276.463z"/>
	</g>
</g>
</svg>
