<?xml version="1.0" encoding="utf-8"?>
<!-- Generator: Adobe Illustrator 23.0.1, SVG Export Plug-In . SVG Version: 6.00 Build 0)  -->
<svg version="1.1" id="Capa_1" xmlns="http://www.w3.org/2000/svg" xmlns:xlink="http://www.w3.org/1999/xlink" x="0px" y="0px"
	 viewBox="0 0 615.327 500" enable-background="new 0 0 615.327 500" xml:space="preserve">
<g>
	<path fill="#870F54" d="M469.466,249.984c0,89.075-72.27,161.306-161.345,161.306c-89.099,0-161.301-72.231-161.301-161.306
		c0-89.07,72.202-161.283,161.301-161.283C397.197,88.701,469.466,160.914,469.466,249.984 M307.926,0
		C169.923,0.106,58.097,111.992,58.097,249.984C58.097,388.062,170.029,500,308.122,500c138.064,0,249.99-111.938,249.99-250.016
		C558.111,111.992,446.291,0.106,308.317,0H307.926z"/>
	<rect y="199.512" fill="#870F54" width="615.327" height="101.129"/>
	<g>
		<path fill="#FFFFFF" d="M68.958,276.463v-37.572l-16.654,20.757l-16.895-20.757v37.572H25.11v-53.662h10.299l16.895,21.157
			l16.654-21.157h10.701v53.662H68.958z"/>
		<path fill="#FFFFFF" d="M90.157,276.463v-53.662h33.309v9.17h-22.85v11.264h18.023v9.492h-18.023v14.162h24.86v9.573H90.157
			V276.463z"/>
		<path fill="#FFFFFF" d="M144.504,276.463v-44.331h-15.528v-9.331h41.434v9.331h-15.527v44.331H144.504z"/>
		<path fill="#FFFFFF" d="M206.841,276.463l-15.207-21.402h-4.827v21.402h-10.298v-53.662h16.01c2.949,0,5.322,0.228,7.12,0.683
			c1.796,0.455,3.499,1.221,5.109,2.293c4.344,2.95,6.517,7.188,6.517,12.71c0,3.327-0.873,6.251-2.614,8.769
			c-1.744,2.524-4.144,4.344-7.201,5.471l17.297,23.735h-11.906V276.463z M191.795,245.972c3.057,0,5.443-0.645,7.16-1.933
			c1.716-1.285,2.574-3.108,2.574-5.471c0-2.092-0.778-3.728-2.332-4.906c-1.557-1.181-3.702-1.772-6.437-1.772h-5.953v14.082
			H191.795z"/>
		<path fill="#FFFFFF" d="M273.914,260.572c-1.476,3.299-3.473,6.197-5.994,8.692c-2.522,2.492-5.498,4.451-8.931,5.871
			c-3.433,1.42-7.08,2.132-10.942,2.132c-3.917,0-7.591-0.723-11.022-2.172c-3.434-1.446-6.424-3.42-8.971-5.912
			c-2.548-2.495-4.559-5.43-6.034-8.81c-1.476-3.379-2.212-7.001-2.212-10.864c0-3.86,0.725-7.482,2.172-10.861
			s3.446-6.326,5.994-8.85c2.547-2.521,5.524-4.506,8.931-5.952c3.405-1.449,7.067-2.172,10.982-2.172s7.59,0.738,11.022,2.213
			c3.432,1.475,6.423,3.486,8.971,6.033c2.547,2.55,4.558,5.54,6.034,8.971c1.475,3.434,2.213,7.107,2.213,11.022
			C276.127,253.722,275.389,257.274,273.914,260.572z M264.299,242.913c-0.912-2.198-2.172-4.102-3.781-5.71
			c-1.609-1.61-3.499-2.884-5.672-3.823c-2.172-0.939-4.519-1.409-7.039-1.409c-2.413,0-4.694,0.458-6.838,1.368
			c-2.146,0.913-4.01,2.161-5.592,3.742c-1.583,1.582-2.843,3.42-3.781,5.511c-0.939,2.092-1.409,4.344-1.409,6.759
			c0,2.411,0.47,4.693,1.409,6.836c0.938,2.146,2.212,4.01,3.821,5.592c1.609,1.584,3.499,2.832,5.671,3.742
			c2.172,0.913,4.519,1.368,7.041,1.368c2.359,0,4.598-0.455,6.717-1.368c2.119-0.91,3.983-2.132,5.592-3.662
			c1.609-1.527,2.884-3.31,3.821-5.35c0.939-2.037,1.409-4.209,1.409-6.517C265.668,247.473,265.211,245.114,264.299,242.913z"/>
		<path fill="#FFFFFF" d="M284.55,276.463v-53.662h16.975c2.627,0,4.988,0.239,7.08,0.723c1.822,0.375,3.5,1.046,5.029,2.011
			c1.528,0.965,2.842,2.161,3.942,3.581c1.099,1.42,1.958,3.005,2.574,4.748s0.925,3.578,0.925,5.511
			c0,2.037-0.336,3.996-1.005,5.871c-0.671,1.878-1.649,3.595-2.936,5.151c-1.825,2.198-3.983,3.754-6.478,4.664
			c-2.493,0.913-5.726,1.368-9.694,1.368h-6.195v20.034H284.55z M301.365,247.099c6.383,0,9.575-2.547,9.575-7.646
			c0-5.039-3.218-7.562-9.655-7.562h-6.517v15.208H301.365z"/>
		<path fill="#FFFFFF" d="M379.494,260.572c-1.476,3.299-3.473,6.197-5.994,8.692c-2.522,2.492-5.498,4.451-8.931,5.871
			s-7.08,2.132-10.942,2.132c-3.917,0-7.591-0.723-11.022-2.172c-3.434-1.446-6.424-3.42-8.971-5.912
			c-2.548-2.495-4.559-5.43-6.034-8.81c-1.476-3.379-2.212-7.001-2.212-10.864c0-3.86,0.725-7.482,2.172-10.861
			s3.446-6.326,5.994-8.85c2.547-2.521,5.524-4.506,8.931-5.952c3.405-1.449,7.067-2.172,10.982-2.172s7.59,0.738,11.022,2.213
			c3.433,1.475,6.423,3.486,8.971,6.033c2.547,2.55,4.558,5.54,6.034,8.971c1.475,3.434,2.213,7.107,2.213,11.022
			C381.706,253.722,380.969,257.274,379.494,260.572z M369.879,242.913c-0.912-2.198-2.172-4.102-3.781-5.71
			c-1.609-1.61-3.499-2.884-5.672-3.823c-2.172-0.939-4.519-1.409-7.039-1.409c-2.413,0-4.694,0.458-6.838,1.368
			c-2.146,0.913-4.01,2.161-5.592,3.742c-1.583,1.582-2.843,3.42-3.781,5.511c-0.939,2.092-1.409,4.344-1.409,6.759
			c0,2.411,0.47,4.693,1.409,6.836c0.938,2.146,2.212,4.01,3.821,5.592c1.609,1.584,3.499,2.832,5.671,3.742
			c2.172,0.913,4.519,1.368,7.041,1.368c2.359,0,4.598-0.455,6.717-1.368c2.119-0.91,3.983-2.132,5.592-3.662
			c1.609-1.527,2.884-3.31,3.821-5.35c0.939-2.037,1.409-4.209,1.409-6.517C371.247,247.473,370.791,245.114,369.879,242.913z"/>
		<path fill="#FFFFFF" d="M390.007,276.463v-53.662h10.298v43.847h22.367v9.815H390.007z"/>
		<path fill="#FFFFFF" d="M428.843,276.463v-53.662h10.459v53.662H428.843z"/>
		<path fill="#FFFFFF" d="M461.162,276.463v-44.331h-15.528v-9.331h41.434v9.331H471.54v44.331H461.162z"/>
		<path fill="#FFFFFF" d="M524.623,276.463l-4.104-11.103h-21.481l-4.104,11.103H483.51l20.597-53.662h11.022l20.837,53.662H524.623
			z M509.658,236.961l-7.081,18.907h14.322L509.658,236.961z"/>
		<path fill="#FFFFFF" d="M580.208,276.463l-28.642-37.01v37.01h-10.138v-53.662h10.138l28.642,37.169v-37.169h10.299v53.662
			L580.208,276.463L580.208,276.463z"/>
	</g>
</g>
</svg>
