<?xml version="1.0" encoding="utf-8"?>
<!-- Generator: Adobe Illustrator 23.0.1, SVG Export Plug-In . SVG Version: 6.00 Build 0)  -->
<svg version="1.1" id="Capa_1" xmlns="http://www.w3.org/2000/svg" xmlns:xlink="http://www.w3.org/1999/xlink" x="0px" y="0px"
	 viewBox="0 0 615.327 500" enable-background="new 0 0 615.327 500" xml:space="preserve">
<g>
	<path fill="#000F9F" d="M469.467,249.984c0,89.075-72.27,161.306-161.345,161.306c-89.099,0-161.301-72.231-161.301-161.306
		c0-89.07,72.202-161.283,161.301-161.283C397.197,88.701,469.467,160.914,469.467,249.984 M307.926,0
		C169.924,0.106,58.097,111.992,58.097,249.984C58.097,388.062,170.029,500,308.122,500c138.064,0,249.99-111.938,249.99-250.016
		C558.112,111.992,446.291,0.106,308.318,0H307.926z"/>
	<rect y="199.512" fill="#000F9F" width="615.327" height="101.129"/>
	<g>
		<path fill="#FFFFFF" d="M103.585,276.463v-53.662h16.976c2.627,0,4.988,0.239,7.08,0.723c1.822,0.375,3.5,1.046,5.029,2.011
			c1.528,0.965,2.842,2.161,3.942,3.581c1.099,1.42,1.958,3.005,2.574,4.748s0.925,3.578,0.925,5.511
			c0,2.037-0.336,3.996-1.005,5.871c-0.671,1.878-1.649,3.595-2.936,5.151c-1.825,2.198-3.983,3.754-6.478,4.664
			c-2.493,0.913-5.726,1.368-9.694,1.368h-6.195v20.034H103.585z M120.399,247.099c6.383,0,9.575-2.547,9.575-7.646
			c0-5.039-3.218-7.562-9.655-7.562h-6.517v15.208H120.399z"/>
		<path fill="#FFFFFF" d="M146.233,276.463v-53.662h10.459v53.662H146.233z"/>
		<path fill="#FFFFFF" d="M203.766,276.221c-3.219,0.913-6.545,1.368-9.976,1.368c-3.97,0-7.683-0.738-11.143-2.213
			s-6.465-3.471-9.011-5.995c-2.548-2.518-4.559-5.497-6.034-8.931c-1.476-3.431-2.212-7.104-2.212-11.022
			c0-3.86,0.736-7.482,2.212-10.861c1.475-3.379,3.5-6.3,6.074-8.769c2.574-2.466,5.605-4.411,9.092-5.831
			c3.486-1.423,7.24-2.135,11.263-2.135c3.003,0,5.966,0.377,8.89,1.126c2.923,0.752,6.021,1.959,9.292,3.621v10.942
			c-1.556-1.126-3.031-2.077-4.425-2.855s-2.748-1.409-4.062-1.89c-1.315-0.484-2.629-0.833-3.942-1.049
			c-1.315-0.213-2.695-0.32-4.144-0.32c-2.789,0-5.39,0.47-7.804,1.406c-2.413,0.939-4.504,2.227-6.275,3.863
			c-1.77,1.636-3.166,3.555-4.184,5.753c-1.018,2.198-1.528,4.586-1.528,7.159c0,2.524,0.483,4.897,1.448,7.121
			c0.967,2.227,2.293,4.172,3.983,5.834c1.69,1.662,3.673,2.964,5.955,3.901c2.279,0.939,4.706,1.409,7.28,1.409
			c3.219,0,6.329-0.484,9.333-1.449c3.003-0.965,5.793-2.359,8.367-4.183v10.218C209.8,274.049,206.983,275.311,203.766,276.221z"/>
		<path fill="#FFFFFF" d="M256.094,276.221c-3.219,0.913-6.545,1.368-9.976,1.368c-3.97,0-7.683-0.738-11.143-2.213
			s-6.465-3.471-9.011-5.995c-2.548-2.518-4.559-5.497-6.034-8.931c-1.476-3.431-2.213-7.104-2.213-11.022
			c0-3.86,0.736-7.482,2.213-10.861c1.475-3.379,3.5-6.3,6.074-8.769c2.574-2.466,5.605-4.411,9.092-5.831
			c3.486-1.423,7.24-2.135,11.263-2.135c3.003,0,5.966,0.377,8.89,1.126c2.923,0.752,6.021,1.959,9.292,3.621v10.942
			c-1.556-1.126-3.031-2.077-4.425-2.855c-1.394-0.778-2.748-1.409-4.062-1.89c-1.315-0.484-2.629-0.833-3.942-1.049
			c-1.315-0.213-2.695-0.32-4.144-0.32c-2.789,0-5.39,0.47-7.804,1.406c-2.413,0.939-4.504,2.227-6.275,3.863
			c-1.77,1.636-3.166,3.555-4.184,5.753c-1.018,2.198-1.528,4.586-1.528,7.159c0,2.524,0.483,4.897,1.448,7.121
			c0.967,2.227,2.293,4.172,3.983,5.834s3.673,2.964,5.955,3.901c2.279,0.939,4.706,1.409,7.28,1.409
			c3.219,0,6.329-0.484,9.333-1.449c3.003-0.965,5.793-2.359,8.367-4.183v10.218C262.128,274.049,259.312,275.311,256.094,276.221z"
			/>
		<path fill="#FFFFFF" d="M309.917,276.463l-4.104-11.103h-21.481l-4.104,11.103h-11.424l20.597-53.662h11.022l20.837,53.662
			H309.917z M294.952,236.961l-7.081,18.907h14.322L294.952,236.961z"/>
		<path fill="#FFFFFF" d="M326.722,222.801h17.058c2.305,0,4.316,0.066,6.034,0.199c1.716,0.135,3.284,0.377,4.706,0.726
			c1.42,0.349,2.735,0.818,3.942,1.406c1.207,0.593,2.506,1.368,3.902,2.333c3.647,2.469,6.423,5.54,8.327,9.213
			c1.903,3.673,2.856,7.764,2.856,12.27c0,4.56-1.046,8.81-3.139,12.751c-2.092,3.944-5.016,7.15-8.769,9.616
			c-2.735,1.824-5.766,3.137-9.091,3.941c-3.327,0.804-7.241,1.207-11.747,1.207h-14.08v-53.662H326.722z M342.492,267.051
			c3.11,0,5.939-0.415,8.488-1.247c2.547-0.833,4.719-2.025,6.517-3.581c1.796-1.556,3.191-3.42,4.183-5.592s1.488-4.598,1.488-7.28
			c0-5.419-1.757-9.683-5.269-12.794c-3.513-3.108-8.355-4.667-14.522-4.667h-6.275v35.161H342.492z"/>
		<path fill="#FFFFFF" d="M381.849,276.463v-53.662h10.459v53.662H381.849z"/>
		<path fill="#FFFFFF" d="M403.636,276.463v-53.662h10.298v43.847H436.3v9.815H403.636z"/>
		<path fill="#FFFFFF" d="M442.512,276.463v-53.662h10.298v43.847h22.367v9.815H442.512z"/>
		<path fill="#FFFFFF" d="M488.699,276.463v-22.609l-18.584-31.053h12.068l11.505,20.353l11.585-20.353h12.068l-18.344,31.053
			v22.609H488.699z"/>
	</g>
</g>
</svg>
