<?xml version="1.0" encoding="utf-8"?>
<!-- Generator: Adobe Illustrator 23.0.1, SVG Export Plug-In . SVG Version: 6.00 Build 0)  -->
<svg version="1.1" id="Capa_1" xmlns="http://www.w3.org/2000/svg" xmlns:xlink="http://www.w3.org/1999/xlink" x="0px" y="0px"
	 viewBox="0 0 615.327 500" enable-background="new 0 0 615.327 500" xml:space="preserve">
<g>
	<path fill="#6BCDB2" d="M469.467,249.984c0,89.075-72.27,161.306-161.345,161.306c-89.099,0-161.301-72.231-161.301-161.306
		c0-89.07,72.202-161.283,161.301-161.283C397.197,88.701,469.467,160.914,469.467,249.984 M307.926,0
		C169.924,0.106,58.097,111.992,58.097,249.984C58.097,388.062,170.029,500,308.122,500c138.064,0,249.99-111.938,249.99-250.016
		C558.112,111.992,446.291,0.106,308.318,0H307.926z"/>
	<rect y="199.512" fill="#6BCDB2" width="615.327" height="101.129"/>
	<g>
		<path fill="#000F9F" d="M63.73,272.041l-8.739-28.506l-8.337,28.506h-8.336L23.595,227.2h9.142l9.883,29.915l8.27-29.915h8.068
			l8.605,29.915l9.681-29.915h9.075l-14.185,44.841H63.73z"/>
		<path fill="#000F9F" d="M119.254,272.041l-3.428-9.276H97.875l-3.428,9.276H84.9l17.212-44.841h9.21l17.412,44.841H119.254z
			 M106.75,239.032l-5.916,15.799h11.967L106.75,239.032z"/>
		<path fill="#000F9F" d="M138.569,272.041v-37.042h-12.975V227.2h34.624v7.799h-12.975v37.042H138.569z"/>
		<path fill="#000F9F" d="M165.231,272.041V227.2h27.832v7.663H173.97v9.412h15.06v7.934h-15.06v11.832h20.774v8H165.231z"/>
		<path fill="#000F9F" d="M226.812,272.041l-12.706-17.882h-4.035v17.882h-8.605V227.2h13.379c2.465,0,4.448,0.19,5.949,0.57
			c1.502,0.38,2.926,1.02,4.269,1.916c3.63,2.466,5.446,6.007,5.446,10.622c0,2.78-0.729,5.223-2.185,7.329
			c-1.458,2.106-3.463,3.63-6.017,4.572l14.453,19.832H226.812z M214.24,246.563c2.554,0,4.549-0.539,5.984-1.616
			c1.433-1.075,2.151-2.599,2.151-4.569c0-1.749-0.65-3.117-1.949-4.102c-1.301-0.985-3.093-1.478-5.379-1.478h-4.975v11.765H214.24
			z"/>
		<path fill="#000F9F" d="M241.515,272.041V227.2h8.605v36.639h18.69v8.202H241.515z"/>
		<path fill="#000F9F" d="M316.36,258.763c-1.233,2.757-2.902,5.177-5.008,7.26c-2.107,2.086-4.595,3.722-7.463,4.909
			s-5.916,1.78-9.142,1.78c-3.273,0-6.344-0.605-9.212-1.815s-5.367-2.858-7.496-4.941s-3.81-4.537-5.042-7.361
			c-1.233-2.823-1.848-5.851-1.848-9.078s0.605-6.251,1.815-9.075c1.21-2.823,2.879-5.289,5.008-7.395
			c2.128-2.106,4.615-3.765,7.461-4.975s5.906-1.815,9.177-1.815s6.342,0.617,9.21,1.85c2.868,1.233,5.367,2.913,7.496,5.042
			s3.81,4.627,5.043,7.496c1.232,2.869,1.848,5.94,1.848,9.21C318.208,253.039,317.591,256.006,316.36,258.763z M308.327,244.008
			c-0.763-1.838-1.816-3.428-3.16-4.774c-1.345-1.345-2.924-2.408-4.74-3.195c-1.815-0.784-3.775-1.175-5.881-1.175
			c-2.018,0-3.922,0.38-5.716,1.144c-1.792,0.761-3.35,1.803-4.671,3.126c-1.322,1.322-2.377,2.858-3.16,4.604
			c-0.785,1.749-1.177,3.633-1.177,5.649c0,2.017,0.392,3.921,1.177,5.713c0.784,1.795,1.85,3.35,3.193,4.673
			s2.924,2.365,4.739,3.126c1.816,0.763,3.775,1.144,5.883,1.144c1.972,0,3.843-0.38,5.613-1.144c1.77-0.761,3.329-1.78,4.673-3.059
			c1.345-1.276,2.408-2.766,3.193-4.468c0.784-1.703,1.177-3.52,1.177-5.448C309.469,247.816,309.087,245.846,308.327,244.008z"/>
		<path fill="#000F9F" d="M368.038,258.763c-1.233,2.757-2.902,5.177-5.008,7.26c-2.107,2.086-4.595,3.722-7.463,4.909
			s-5.916,1.78-9.142,1.78c-3.273,0-6.344-0.605-9.212-1.815s-5.367-2.858-7.496-4.941s-3.81-4.537-5.042-7.361
			c-1.233-2.823-1.848-5.851-1.848-9.078s0.605-6.251,1.815-9.075c1.21-2.823,2.879-5.289,5.008-7.395
			c2.128-2.106,4.615-3.765,7.461-4.975s5.906-1.815,9.177-1.815s6.342,0.617,9.21,1.85c2.868,1.233,5.367,2.913,7.496,5.042
			s3.81,4.627,5.043,7.496c1.232,2.869,1.848,5.94,1.848,9.21C369.886,253.039,369.27,256.006,368.038,258.763z M360.005,244.008
			c-0.763-1.838-1.816-3.428-3.16-4.774c-1.345-1.345-2.924-2.408-4.74-3.195c-1.815-0.784-3.775-1.175-5.881-1.175
			c-2.018,0-3.922,0.38-5.716,1.144c-1.792,0.761-3.35,1.803-4.671,3.126c-1.322,1.322-2.377,2.858-3.16,4.604
			c-0.785,1.749-1.177,3.633-1.177,5.649c0,2.017,0.392,3.921,1.177,5.713c0.784,1.795,1.85,3.35,3.193,4.673
			c1.344,1.322,2.924,2.365,4.739,3.126c1.816,0.763,3.775,1.144,5.883,1.144c1.972,0,3.843-0.38,5.613-1.144
			c1.77-0.761,3.329-1.78,4.673-3.059c1.345-1.276,2.408-2.766,3.193-4.468c0.784-1.703,1.177-3.52,1.177-5.448
			C361.147,247.816,360.766,245.846,360.005,244.008z"/>
		<path fill="#000F9F" d="M423.468,272.041l-4.101-4.707c-0.359,0.271-0.65,0.516-0.874,0.74c-0.225,0.225-0.426,0.403-0.605,0.539
			c-1.569,1.299-3.317,2.319-5.243,3.06c-1.929,0.737-3.878,1.109-5.85,1.109c-1.883,0-3.653-0.36-5.311-1.077
			c-1.658-0.714-3.116-1.703-4.37-2.956c-1.255-1.256-2.241-2.725-2.957-4.405c-0.717-1.68-1.076-3.463-1.076-5.344
			c0-2.42,0.65-4.595,1.949-6.522c1.301-1.927,3.362-3.785,6.185-5.58c-0.268-0.311-0.516-0.57-0.739-0.772
			c-0.225-0.202-0.403-0.372-0.537-0.504c-0.987-1.121-1.772-2.408-2.354-3.866c-0.583-1.455-0.874-2.858-0.874-4.203
			c0-1.567,0.326-3.034,0.975-4.402c0.65-1.366,1.534-2.555,2.656-3.564c1.119-1.008,2.453-1.792,4-2.354
			c1.546-0.559,3.193-0.838,4.941-0.838c1.792,0,3.463,0.302,5.008,0.907c1.547,0.605,2.891,1.435,4.035,2.486
			c1.142,1.054,2.038,2.299,2.688,3.731c0.65,1.435,0.975,2.982,0.975,4.638c0,1.256-0.101,2.345-0.302,3.261
			c-0.202,0.919-0.572,1.749-1.109,2.489c-0.537,0.738-1.278,1.443-2.218,2.117c-0.942,0.671-2.129,1.389-3.564,2.152
			c-0.225,0.089-0.47,0.202-0.739,0.334c-0.269,0.135-0.583,0.314-0.942,0.539l6.253,7.194c0.179-0.314,0.347-0.582,0.504-0.807
			s0.279-0.403,0.37-0.539c0.447-0.671,0.807-1.242,1.075-1.714c0.269-0.47,0.516-0.861,0.74-1.175
			c0.448-0.763,0.762-1.345,0.941-1.749s0.337-0.962,0.471-1.68h8.605l-0.471,1.075c-0.225,0.493-0.593,1.233-1.109,2.218
			c-0.516,0.985-1.2,2.218-2.05,3.699c-0.403,0.717-0.763,1.334-1.076,1.847c-0.314,0.516-0.628,0.988-0.941,1.412
			c-0.314,0.426-0.651,0.853-1.01,1.279s-0.762,0.907-1.21,1.446l9.212,10.486L423.468,272.041L423.468,272.041z M406.19,252.544
			c-1.569,0.631-2.79,1.527-3.664,2.691c-0.873,1.167-1.311,2.42-1.311,3.765c0,1.57,0.605,2.889,1.815,3.967
			c1.211,1.075,2.689,1.613,4.438,1.613c1.165,0,2.251-0.213,3.261-0.64c1.008-0.426,2.207-1.175,3.597-2.253L406.19,252.544z
			 M414.661,237.822c0-1.299-0.504-2.397-1.512-3.296c-1.008-0.896-2.23-1.342-3.664-1.342c-1.435,0-2.633,0.435-3.597,1.311
			c-0.964,0.873-1.445,1.959-1.445,3.258c0,0.631,0.156,1.236,0.47,1.818s0.851,1.299,1.613,2.149l2.084,2.218
			C412.644,242.728,414.661,240.692,414.661,237.822z"/>
		<path fill="#000F9F" d="M486.459,271.84c-2.689,0.761-5.469,1.144-8.337,1.144c-3.317,0-6.42-0.617-9.311-1.85
			s-5.402-2.901-7.529-5.01c-2.129-2.106-3.81-4.592-5.043-7.461c-1.233-2.866-1.848-5.937-1.848-9.21
			c0-3.227,0.615-6.251,1.848-9.075c1.233-2.826,2.926-5.266,5.076-7.329c2.152-2.06,4.683-3.688,7.597-4.874
			c2.913-1.187,6.051-1.78,9.412-1.78c2.511,0,4.985,0.314,7.43,0.939c2.442,0.628,5.03,1.636,7.764,3.025v9.144
			c-1.299-0.939-2.532-1.737-3.698-2.385c-1.165-0.651-2.297-1.178-3.395-1.582c-1.098-0.403-2.195-0.694-3.294-0.873
			c-1.098-0.179-2.251-0.268-3.461-0.268c-2.331,0-4.504,0.392-6.521,1.175c-2.018,0.784-3.765,1.861-5.245,3.227
			c-1.479,1.368-2.645,2.97-3.496,4.808s-1.278,3.832-1.278,5.984c0,2.106,0.403,4.091,1.21,5.949
			c0.807,1.861,1.917,3.486,3.329,4.874s3.07,2.478,4.974,3.261c1.906,0.784,3.934,1.175,6.084,1.175
			c2.689,0,5.288-0.403,7.799-1.21c2.511-0.807,4.841-1.97,6.992-3.497v8.539C491.501,270.025,489.148,271.079,486.459,271.84z"/>
		<path fill="#000F9F" d="M501.525,272.041V227.2h8.739v44.841H501.525z"/>
		<path fill="#000F9F" d="M528.618,272.041v-37.042h-12.975V227.2h34.624v7.799h-12.975v37.042H528.618z"/>
		<path fill="#000F9F" d="M569.392,272.041v-18.893L553.863,227.2h10.084l9.613,17.009l9.681-17.009h10.084l-15.329,25.948v18.893
			H569.392z"/>
	</g>
</g>
</svg>
