<?xml version="1.0" encoding="utf-8"?>
<!-- Generator: Adobe Illustrator 23.0.1, SVG Export Plug-In . SVG Version: 6.00 Build 0)  -->
<svg version="1.1" id="Capa_1" xmlns="http://www.w3.org/2000/svg" xmlns:xlink="http://www.w3.org/1999/xlink" x="0px" y="0px"
	 viewBox="0 0 615.327 500" enable-background="new 0 0 615.327 500" xml:space="preserve">
<g>
	<path fill="#00A0DF" d="M469.467,249.984c0,89.075-72.27,161.306-161.345,161.306c-89.099,0-161.301-72.231-161.301-161.306
		c0-89.07,72.202-161.283,161.301-161.283C397.197,88.701,469.467,160.914,469.467,249.984 M307.926,0
		C169.924,0.106,58.097,111.992,58.097,249.984C58.097,388.062,170.029,500,308.122,500c138.064,0,249.99-111.938,249.99-250.016
		C558.112,111.992,446.291,0.106,308.318,0H307.926z"/>
	<rect y="199.512" fill="#00A0DF" width="615.327" height="101.129"/>
	<g>
		<path fill="#FFFFFF" d="M162.337,276.463h-9.575l-20.837-53.662h11.263l14.321,38.457l14.08-38.457h11.103L162.337,276.463z"/>
		<path fill="#FFFFFF" d="M188.233,276.463v-53.662h10.459v53.662H188.233z"/>
		<path fill="#FFFFFF" d="M245.767,276.221c-3.219,0.913-6.545,1.368-9.976,1.368c-3.97,0-7.683-0.738-11.143-2.213
			s-6.465-3.471-9.011-5.995c-2.548-2.518-4.559-5.497-6.034-8.931c-1.476-3.431-2.213-7.104-2.213-11.022
			c0-3.86,0.736-7.482,2.213-10.861c1.475-3.379,3.5-6.3,6.074-8.769c2.574-2.466,5.605-4.411,9.092-5.831
			c3.486-1.423,7.24-2.135,11.263-2.135c3.003,0,5.966,0.377,8.89,1.126c2.923,0.752,6.021,1.959,9.292,3.621v10.942
			c-1.556-1.126-3.031-2.077-4.425-2.855s-2.748-1.409-4.062-1.89c-1.315-0.484-2.629-0.833-3.942-1.049
			c-1.315-0.213-2.695-0.32-4.144-0.32c-2.789,0-5.39,0.47-7.804,1.406c-2.413,0.939-4.504,2.227-6.275,3.863
			c-1.77,1.636-3.166,3.555-4.184,5.753c-1.018,2.198-1.528,4.586-1.528,7.159c0,2.524,0.483,4.897,1.448,7.121
			c0.967,2.227,2.293,4.172,3.983,5.834c1.69,1.662,3.673,2.964,5.955,3.901c2.279,0.939,4.706,1.409,7.28,1.409
			c3.219,0,6.329-0.484,9.333-1.449c3.003-0.965,5.793-2.359,8.367-4.183v10.218C251.801,274.049,248.985,275.311,245.767,276.221z"
			/>
		<path fill="#FFFFFF" d="M274.819,276.463v-44.331h-15.528v-9.331h41.434v9.331h-15.528v44.331H274.819z"/>
		<path fill="#FFFFFF" d="M357.067,260.572c-1.476,3.299-3.473,6.197-5.994,8.692c-2.522,2.492-5.498,4.451-8.931,5.871
			s-7.08,2.132-10.942,2.132c-3.917,0-7.591-0.723-11.022-2.172c-3.434-1.446-6.424-3.42-8.971-5.912
			c-2.548-2.495-4.559-5.43-6.034-8.81c-1.476-3.379-2.212-7.001-2.212-10.864c0-3.86,0.725-7.482,2.172-10.861
			c1.448-3.379,3.445-6.326,5.994-8.85c2.547-2.521,5.524-4.506,8.931-5.952c3.405-1.449,7.067-2.172,10.982-2.172
			s7.59,0.738,11.022,2.213s6.423,3.486,8.971,6.033c2.547,2.55,4.558,5.54,6.034,8.971c1.475,3.434,2.213,7.107,2.213,11.022
			C359.279,253.722,358.542,257.274,357.067,260.572z M347.452,242.913c-0.912-2.198-2.172-4.102-3.781-5.71
			c-1.609-1.61-3.499-2.884-5.672-3.823c-2.172-0.939-4.519-1.409-7.039-1.409c-2.413,0-4.694,0.458-6.838,1.368
			c-2.146,0.913-4.01,2.161-5.592,3.742c-1.583,1.582-2.843,3.42-3.781,5.511c-0.939,2.092-1.409,4.344-1.409,6.759
			c0,2.411,0.47,4.693,1.409,6.836c0.938,2.146,2.213,4.01,3.821,5.592c1.609,1.584,3.499,2.832,5.671,3.742
			c2.172,0.913,4.519,1.368,7.041,1.368c2.359,0,4.598-0.455,6.717-1.368c2.119-0.91,3.983-2.132,5.592-3.662
			c1.609-1.527,2.884-3.31,3.821-5.35c0.939-2.037,1.409-4.209,1.409-6.517C348.82,247.473,348.363,245.114,347.452,242.913z"/>
		<path fill="#FFFFFF" d="M397.994,276.463l-15.207-21.402h-4.827v21.402h-10.298v-53.662h16.01c2.949,0,5.322,0.228,7.12,0.683
			c1.796,0.455,3.499,1.221,5.109,2.293c4.344,2.95,6.517,7.188,6.517,12.71c0,3.327-0.873,6.251-2.614,8.769
			c-1.744,2.524-4.144,4.344-7.201,5.471l17.297,23.735h-11.906V276.463z M382.948,245.972c3.057,0,5.443-0.645,7.16-1.933
			c1.716-1.285,2.574-3.108,2.574-5.471c0-2.092-0.778-3.728-2.332-4.906c-1.557-1.181-3.702-1.772-6.437-1.772h-5.953v14.082
			H382.948z"/>
		<path fill="#FFFFFF" d="M415.443,276.463v-53.662h10.459v53.662H415.443z"/>
		<path fill="#FFFFFF" d="M472.993,276.463l-4.104-11.103h-21.481l-4.104,11.103H431.88l20.597-53.662h11.022l20.837,53.662H472.993
			z M458.028,236.961l-7.081,18.907h14.322L458.028,236.961z"/>
	</g>
</g>
</svg>
