<?xml version="1.0" encoding="utf-8"?>
<!-- Generator: Adobe Illustrator 23.0.1, SVG Export Plug-In . SVG Version: 6.00 Build 0)  -->
<svg version="1.1" id="Capa_1" xmlns="http://www.w3.org/2000/svg" xmlns:xlink="http://www.w3.org/1999/xlink" x="0px" y="0px"
	 viewBox="0 0 615.327 500" enable-background="new 0 0 615.327 500" xml:space="preserve">
<g>
	<path fill="#7B868C" d="M469.466,249.984c0,89.075-72.27,161.306-161.345,161.306c-89.099,0-161.301-72.231-161.301-161.306
		c0-89.07,72.202-161.283,161.301-161.283C397.197,88.701,469.466,160.914,469.466,249.984 M307.926,0
		C169.923,0.106,58.097,111.992,58.097,249.984C58.097,388.062,170.029,500,308.122,500c138.064,0,249.99-111.938,249.99-250.016
		C558.111,111.992,446.291,0.106,308.317,0H307.926z"/>
	<rect y="199.512" fill="#7B868C" width="615.327" height="101.129"/>
	<g>
		<path fill="#FFFFFF" d="M196.779,258.763c0,1.61-0.055,2.99-0.161,4.143c-0.108,1.155-0.295,2.187-0.563,3.097
			c-0.269,0.913-0.631,1.786-1.086,2.616c-0.457,0.833-1.033,1.677-1.73,2.535c-1.609,2.04-3.554,3.581-5.832,4.627
			c-2.28,1.046-4.788,1.567-7.523,1.567c-3.539,0-6.544-0.925-9.01-2.774c-2.469-1.852-4.373-4.546-5.713-8.087l9.092-4.183
			c0.804,1.985,1.62,3.353,2.453,4.102c0.831,0.752,1.998,1.126,3.5,1.126c1.983,0,3.512-0.723,4.585-2.172
			c1.073-1.449,1.61-3.512,1.61-6.194v-36.365h10.378L196.779,258.763L196.779,258.763z"/>
		<path fill="#FFFFFF" d="M255.179,251.601c0,3.702-0.402,6.88-1.207,9.536c-0.804,2.653-2.119,5.108-3.941,7.361
			c-2.201,2.737-4.977,4.883-8.327,6.436c-3.353,1.556-6.854,2.333-10.499,2.333c-3.702,0-7.23-0.792-10.58-2.374
			c-3.353-1.582-6.155-3.765-8.408-6.557c-1.824-2.253-3.126-4.638-3.902-7.159c-0.778-2.521-1.167-5.603-1.167-9.253v-29.123
			h10.298v29.203c0,4.615,1.234,8.3,3.702,11.063c2.466,2.763,5.765,4.143,9.896,4.143c1.93,0,3.875-0.386,5.832-1.167
			c1.958-0.775,3.473-1.78,4.546-3.016c1.073-1.178,1.877-2.708,2.414-4.586c0.534-1.875,0.804-3.967,0.804-6.275v-29.365h10.54
			v28.8H255.179z"/>
		<path fill="#FFFFFF" d="M281.456,222.801c2.574,0,4.893,0.308,6.959,0.925c2.064,0.617,3.821,1.515,5.271,2.694
			c1.448,1.181,2.56,2.59,3.339,4.223c0.776,1.639,1.165,3.474,1.165,5.511c0,2.201-0.536,4.212-1.609,6.035
			c-0.376,0.642-0.737,1.196-1.086,1.651s-0.738,0.859-1.167,1.204c-0.429,0.351-0.925,0.66-1.488,0.928
			c-0.563,0.268-1.247,0.562-2.051,0.884c3.592,0.591,6.423,2.146,8.487,4.667c2.064,2.521,3.098,5.658,3.098,9.412
			c0,3.489-1.1,6.626-3.299,9.415c-1.717,2.198-3.796,3.768-6.236,4.704c-2.442,0.939-5.592,1.409-9.454,1.409h-17.539v-53.662
			L281.456,222.801L281.456,222.801z M280.893,243.639c2.198,0,3.914-0.524,5.148-1.57s1.851-2.48,1.851-4.304
			s-0.604-3.27-1.811-4.344c-1.206-1.072-2.829-1.61-4.867-1.61h-5.069v11.829L280.893,243.639L280.893,243.639z M283.065,267.613
			c2.735,0,4.853-0.631,6.355-1.89c1.501-1.262,2.253-3.019,2.253-5.272c0-1.821-0.591-3.486-1.77-4.987
			c-0.859-1.072-1.757-1.783-2.695-2.132c-0.939-0.349-2.321-0.524-4.143-0.524h-6.92v14.805L283.065,267.613L283.065,267.613z"/>
		<path fill="#FFFFFF" d="M311.03,276.463v-53.662h10.459v53.662H311.03z"/>
		<path fill="#FFFFFF" d="M332.816,276.463v-53.662h10.298v43.847h22.367v9.815H332.816z"/>
		<path fill="#FFFFFF" d="M371.579,276.463v-53.662h33.309v9.17h-22.85v11.264h18.023v9.492h-18.023v14.162h24.86v9.573h-35.319
			V276.463z"/>
		<path fill="#FFFFFF" d="M414.653,276.463v-53.662h33.309v9.17h-22.85v11.264h18.023v9.492h-18.023v14.162h24.86v9.573h-35.319
			V276.463z"/>
	</g>
</g>
</svg>
